#!OML:ASF Y:\EmotionMaleHayes\Project 1\Capture day 1\Session 1\Male1.ASF
:FULLY-SPECIFIED
:DEGREES
828
root 3.87288 17.4517 -1.71922 387.137 81.5932 382.139
lowerback 9.33707 1.83722 -7.65387
upperback 7.42259 2.28081 -1.8132
thorax 2.34704 1.02642 2.2366
lowerneck -23.1314 3.08728 3.07663
upperneck 27.2123 4.32684 -2.45827
head 13.1096 1.96336 -0.680899
rclavicle -2.28602e-014 -1.70955e-014
rhumerus 53.0889 12.949 -29.3557
rradius 40.8152
rwrist -4.36348
rhand 1.17412 -31.8468
rfingers 7.12502
rthumb 26.7145 -59.9811
lclavicle -2.28602e-014 -1.70955e-014
lhumerus 48.2437 -12.6679 21.2317
lradius 40.4702
lwrist 8.24368
lhand -6.7352 -19.4753
lfingers 7.12502
lthumb 19.1255 9.60433
rfemur -11.0038 -4.84308 2.58506
rtibia 29.1507
rfoot -17.2118 -7.55712
rtoes 2.08297
lfemur -2.39359 0.781271 -18.4369
ltibia 15.9083
lfoot -16.1504 11.418
ltoes -7.21798
829
root 3.93743 17.4532 -1.69563 387.649 81.7113 382.691
lowerback 9.35316 1.7669 -7.77686
upperback 7.47557 2.18721 -1.84663
thorax 2.40311 0.974851 2.27786
lowerneck -23.2216 3.1308 3.07613
upperneck 27.2158 4.38073 -2.44587
head 13.1309 1.98655 -0.665237
rclavicle -1.19271e-014 -1.70955e-014
rhumerus 53.1768 12.8348 -29.5028
rradius 40.7515
rwrist -4.13707
rhand 1.40167 -31.9119
rfingers 7.12502
rthumb 26.9322 -60.0128
lclavicle -1.19271e-014 -1.70955e-014
lhumerus 48.1505 -12.6146 21.2416
lradius 40.5641
lwrist 8.2249
lhand -6.75096 -19.5552
lfingers 7.12502
lthumb 19.1103 9.52597
rfemur -11.4545 -5.02475 2.43403
rtibia 28.3605
rfoot -17.4615 -7.32623
rtoes 1.68494
lfemur -2.00129 0.692467 -18.4317
ltibia 15.6827
lfoot -16.1585 11.3625
ltoes -7.24162
830
root 4.00479 17.4538 -1.67131 387.964 81.8039 382.982
lowerback 9.28984 1.74671 -7.81082
upperback 7.45198 2.16347 -1.89635
thorax 2.41631 0.962757 2.24838
lowerneck -23.1495 3.11629 3.10201
upperneck 27.2313 4.35641 -2.4485
head 13.1225 1.97996 -0.675745
rclavicle 4.37326e-015 -2.50469e-014
rhumerus 53.1625 12.7978 -29.6632
rradius 40.5983
rwrist -4.18515
rhand 1.18398 -31.7988
rfingers 7.12502
rthumb 26.7239 -59.9317
lclavicle 4.37326e-015 -2.50469e-014
lhumerus 48.1181 -12.7193 21.2213
lradius 40.7193
lwrist 8.35985
lhand -6.49036 -19.6845
lfingers 7.12502
lthumb 19.3609 9.37169
rfemur -11.952 -5.15679 2.28732
rtibia 27.4266
rfoot -17.5589 -7.07741
rtoes 1.86942
lfemur -1.68733 0.717323 -18.4032
ltibia 15.535
lfoot -16.1609 11.4036
ltoes -8.3824
831
root 4.07051 17.4549 -1.63903 387.825 81.8063 382.807
lowerback 9.22641 1.76993 -7.95416
upperback 7.44524 2.19032 -1.89051
thorax 2.43895 0.969445 2.33361
lowerneck -23.1075 3.12491 3.16783
upperneck 27.1488 4.36801 -2.53698
head 13.0847 1.97978 -0.719856
rclavicle -7.35503e-015 4.53229e-014
rhumerus 53.2151 12.8003 -29.5561
rradius 40.5561
rwrist -4.395
rhand 0.893901 -31.7962
rfingers 7.12502
rthumb 26.4463 -59.9711
lclavicle -7.35503e-015 4.53229e-014
lhumerus 48.0643 -12.7228 21.3678
lradius 40.7689
lwrist 8.25709
lhand -6.38064 -19.7245
lfingers 7.12502
lthumb 19.4664 9.32105
rfemur -12.4855 -5.03668 2.2143
rtibia 26.3015
rfoot -17.336 -7.00514
rtoes 1.27646
lfemur -1.39762 0.756517 -18.2893
ltibia 15.4247
lfoot -16.2371 11.5218
ltoes -9.40196
832
root 4.13161 17.4544 -1.60288 387.463 81.8777 382.429
lowerback 9.27452 1.77412 -8.06466
upperback 7.44591 2.18314 -1.83936
thorax 2.41048 0.961226 2.44721
lowerneck -23.2061 3.12351 3.0966
upperneck 27.1246 4.38911 -2.5459
head 13.094 1.97815 -0.706546
rclavicle -1.53064e-014 2.78299e-015
rhumerus 53.2453 12.7817 -29.3219
rradius 40.6185
rwrist -4.48161
rhand 0.969881 -31.7821
rfingers 7.12502
rthumb 26.519 -59.946
lclavicle -1.53064e-014 2.78299e-015
lhumerus 48.1017 -12.71 21.5591
lradius 40.6605
lwrist 8.13199
lhand -6.47622 -19.6148
lfingers 7.12502
lthumb 19.3745 9.44001
rfemur -13.0942 -4.79541 2.25826
rtibia 25.3966
rfoot -17.1899 -6.99989
rtoes 0.320994
lfemur -1.08249 0.583802 -18.1022
ltibia 15.2141
lfoot -16.354 11.666
ltoes -9.38098
833
root 4.19211 17.452 -1.57018 387.171 82.035 382.044
lowerback 9.28139 1.75122 -7.98873
upperback 7.40354 2.15131 -1.82295
thorax 2.36505 0.949238 2.42383
lowerneck -23.288 3.08113 2.92197
upperneck 27.1786 4.36475 -2.44862
head 13.1245 1.96176 -0.642693
rclavicle 6.55989e-015 -1.70955e-014
rhumerus 53.0993 12.7124 -29.234
rradius 40.7067
rwrist -4.41233
rhand 1.19833 -31.617
rfingers 7.12502
rthumb 26.7377 -59.7477
lclavicle 6.55989e-015 -1.70955e-014
lhumerus 48.2861 -12.8321 21.49
lradius 40.5652
lwrist 8.2463
lhand -6.68564 -19.3923
lfingers 7.12502
lthumb 19.1731 9.68261
rfemur -13.7507 -4.70252 2.31857
rtibia 24.5581
rfoot -16.9637 -6.91796
rtoes -0.0980414
lfemur -0.895481 0.270322 -17.9232
ltibia 15.0634
lfoot -16.6713 11.7091
ltoes -7.93269
834
root 4.25574 17.4487 -1.53909 387.153 82.231 381.97
lowerback 9.27395 1.71114 -7.89129
upperback 7.37273 2.10233 -1.83958
thorax 2.34302 0.929825 2.35609
lowerneck -23.2768 3.05622 2.91318
upperneck 27.2011 4.33752 -2.45545
head 13.1306 1.94857 -0.64882
rclavicle -2.68359e-014 -1.90833e-014
rhumerus 52.9583 12.6188 -29.3049
rradius 40.721
rwrist -4.27265
rhand 1.23603 -31.5269
rfingers 7.12502
rthumb 26.7737 -59.6522
lclavicle -2.68359e-014 -1.90833e-014
lhumerus 48.3434 -12.9377 21.3672
lradius 40.6643
lwrist 8.29339
lhand -6.76058 -19.3122
lfingers 7.12502
lthumb 19.1011 9.76989
rfemur -14.2124 -4.76877 2.31124
rtibia 23.4102
rfoot -16.4675 -6.86002
rtoes -1.36766
lfemur -0.652621 0.0190315 -17.7689
ltibia 14.9397
lfoot -17.0644 11.5697
ltoes -6.0379
835
root 4.32162 17.4459 -1.5031 388.39 82.2957 383.306
lowerback 9.31341 1.68852 -8.10905
upperback 7.44506 2.06748 -1.89632
thorax 2.40162 0.905038 2.42048
lowerneck -23.3583 3.03623 2.94225
upperneck 27.1809 4.2956 -2.46844
head 13.1386 1.92978 -0.665565
rclavicle 1.13307e-014 1.23246e-014
rhumerus 53.0028 12.4893 -29.3576
rradius 40.701
rwrist -4.31894
rhand 1.1467 -31.6276
rfingers 7.12502
rthumb 26.6883 -59.7659
lclavicle 1.13307e-014 1.23246e-014
lhumerus 48.2771 -12.8571 21.4154
lradius 40.7991
lwrist 8.23831
lhand -6.48976 -19.5356
lfingers 7.12502
lthumb 19.3615 9.52055
rfemur -14.4933 -4.71749 2.02642
rtibia 22.2248
rfoot -16.0762 -6.68221
rtoes -2.28578
lfemur -0.203176 -0.114107 -17.8613
ltibia 14.7152
lfoot -17.2101 11.5891
ltoes -5.55026
836
root 4.38657 17.4428 -1.45973 389.381 82.3153 384.358
lowerback 9.27851 1.66843 -8.38115
upperback 7.53128 2.04137 -1.946
thorax 2.51455 0.879682 2.52381
lowerneck -23.4403 3.05383 2.92279
upperneck 27.0959 4.2941 -2.39836
head 13.1178 1.93447 -0.634768
rclavicle 2.26615e-014 2.26615e-014
rhumerus 53.15 12.3692 -29.4077
rradius 40.6332
rwrist -4.33206
rhand 1.14627 -31.6797
rfingers 7.12502
rthumb 26.6878 -59.818
lclavicle 2.26615e-014 2.26615e-014
lhumerus 48.2371 -12.7106 21.47
lradius 40.8452
lwrist 8.14466
lhand -6.29015 -19.92
lfingers 7.12502
lthumb 19.5534 9.11678
rfemur -14.8265 -4.38514 1.77589
rtibia 21.1285
rfoot -15.9032 -6.37674
rtoes -1.34557
lfemur 0.143667 -0.207575 -17.8899
ltibia 14.5676
lfoot -17.2731 11.7323
ltoes -5.66995
837
root 4.44838 17.4376 -1.41311 388.633 82.4601 383.576
lowerback 9.28096 1.66665 -8.3421
upperback 7.47136 2.03389 -1.95187
thorax 2.45047 0.879967 2.49571
lowerneck -23.272 3.05561 2.9331
upperneck 27.0333 4.26813 -2.30931
head 13.0547 1.9395 -0.608715
rclavicle 1.72943e-014 -1.19271e-015
rhumerus 53.0998 12.3701 -29.5176
rradius 40.5358
rwrist -4.21157
rhand 1.23358 -31.7564
rfingers 7.12502
rthumb 26.7714 -59.882
lclavicle 1.72943e-014 -1.19271e-015
lhumerus 48.2518 -12.8101 21.4317
lradius 40.8686
lwrist 8.02901
lhand -6.33069 -20.2853
lfingers 7.12502
lthumb 19.5144 8.75539
rfemur -15.3218 -3.86703 1.87808
rtibia 20.055
rfoot -15.6674 -6.20377
rtoes -0.172736
lfemur 0.346703 -0.281285 -17.5474
ltibia 14.5542
lfoot -17.3942 11.8298
ltoes -5.84964
838
root 4.51 17.4329 -1.3675 388.488 82.6041 383.382
lowerback 9.31275 1.65954 -8.34632
upperback 7.3945 2.01228 -1.96749
thorax 2.3536 0.873298 2.48146
lowerneck -23.1452 3.03561 3.00744
upperneck 27.0059 4.23377 -2.36453
head 13.0201 1.92696 -0.650285
rclavicle -8.34896e-015 1.43125e-014
rhumerus 53.051 12.4291 -29.4021
rradius 40.5402
rwrist -4.36129
rhand 1.28701 -31.8787
rfingers 7.12502
rthumb 26.8225 -59.9965
lclavicle -8.34896e-015 1.43125e-014
lhumerus 48.3468 -12.9107 21.4609
lradius 40.7583
lwrist 8.00637
lhand -6.38222 -20.4084
lfingers 7.12502
lthumb 19.4649 8.63732
rfemur -15.902 -3.53296 1.90299
rtibia 19.0991
rfoot -15.2595 -6.12354
rtoes -0.461157
lfemur 0.556409 -0.364818 -17.3208
ltibia 14.523
lfoot -17.4447 11.9226
ltoes -6.74008
